<?xml version="1.0" standalone="no"?>
<!DOCTYPE svg PUBLIC "-//W3C//DTD SVG 20010904//EN"
 "http://www.w3.org/TR/2001/REC-SVG-20010904/DTD/svg10.dtd">
<svg version="1.0" xmlns="http://www.w3.org/2000/svg"
 width="460.000000pt" height="466.000000pt" viewBox="0 0 460.000000 466.000000"
 preserveAspectRatio="xMidYMid meet">

<g transform="translate(0.000000,466.000000) scale(0.100000,-0.100000)"
fill="#000000" stroke="none">
<path d="M0 3505 c0 -635 3 -1155 8 -1155 7 0 5 -112 -5 -284 -4 -71 -3 -78
11 -67 11 9 14 24 10 54 -6 45 10 43 21 -3 4 -18 -1 -32 -20 -53 -14 -15 -22
-27 -17 -27 5 0 7 -12 4 -27 -3 -16 -7 -459 -9 -985 l-4 -958 2301 0 2300 0 0
1086 c0 818 -3 1083 -12 1078 -7 -5 -8 -3 -3 6 10 16 13 120 4 120 -4 0 -9 11
-11 25 -3 14 -2 25 3 25 4 0 10 -10 12 -22 2 -13 5 509 6 1160 l1 1182 -1160
0 c-747 0 -1160 -3 -1160 -10 0 -6 -9 -6 -25 0 -14 5 -474 9 -1140 10 l-1115
0 0 -1155z m1889 1141 c-12 -10 -69 -24 -69 -16 0 5 8 11 18 13 22 6 57 8 51
3z m451 -8 c0 -11 -22 -10 -40 2 -11 8 -9 9 13 8 15 -1 27 -6 27 -10z m-530
-8 c0 -5 -5 -10 -11 -10 -5 0 -7 5 -4 10 3 6 8 10 11 10 2 0 4 -4 4 -10z m555
0 c3 -5 1 -10 -4 -10 -6 0 -11 5 -11 10 0 6 2 10 4 10 3 0 8 -4 11 -10z m46
-5 c5 4 6 -1 3 -9 -5 -14 -34 -11 -34 3 0 14 15 22 18 12 2 -6 8 -9 13 -6z
m-234 -19 c63 -9 204 -54 268 -86 140 -69 250 -194 302 -345 23 -68 27 -97 28
-189 l0 -109 35 -22 c287 -183 1187 -782 1301 -866 47 -35 129 -93 182 -129
53 -35 97 -70 97 -77 0 -16 -29 -68 -89 -157 -26 -39 -78 -123 -116 -186 -71
-117 -144 -214 -265 -350 -324 -365 -386 -442 -724 -900 -195 -265 -416 -514
-564 -637 l-43 -36 -62 49 c-86 67 -404 304 -522 389 -54 39 -123 91 -154 116
-62 50 -372 268 -411 289 -14 7 -41 26 -60 41 -113 91 -348 260 -368 265 -13
4 -57 -5 -102 -20 -94 -31 -219 -35 -315 -11 -74 19 -225 92 -286 139 -86 65
-184 219 -214 333 -61 235 60 677 296 1079 158 270 363 536 594 772 258 265
468 434 655 531 209 107 367 142 537 117z m267 2 c-5 -8 -2 -9 10 -5 11 5 15
3 10 -5 -5 -8 -2 -9 10 -5 10 4 15 3 11 -3 -3 -6 1 -10 10 -10 9 0 13 -4 10
-10 -4 -6 -22 -2 -47 11 -31 16 -38 23 -27 30 19 12 22 11 13 -3z m-709 -16
c-3 -3 -11 0 -18 7 -9 10 -8 11 6 5 10 -3 15 -9 12 -12z m-35 -11 c0 -4 -21
-14 -47 -24 -38 -13 -44 -14 -29 -2 11 8 24 15 29 15 4 0 6 3 4 8 -3 4 6 8 19
8 13 1 24 -1 24 -5z m885 -61 c3 -6 3 -10 -2 -10 -11 1 -43 26 -43 34 0 9 37
-11 45 -24z m-985 12 c0 -8 -14 -16 -63 -40 -4 -2 -4 3 -1 12 3 9 10 14 14 11
4 -3 13 2 20 10 14 16 30 20 30 7z m1030 -42 c0 -5 -4 -10 -9 -10 -6 0 -13 5
-16 10 -3 6 1 10 9 10 9 0 16 -4 16 -10z m56 -42 c2 1 4 -1 4 -5 0 -17 -24 -6
-38 17 l-16 25 23 -20 c13 -11 25 -19 27 -17z m-1196 13 c0 -15 -33 -22 -44
-10 -8 9 -8 10 1 5 6 -3 14 -2 18 4 8 12 25 13 25 1z m-50 -29 c0 -4 -18 -17
-40 -30 -29 -16 -38 -18 -34 -8 3 9 14 18 25 21 11 4 17 11 14 16 -3 5 2 6 11
2 13 -5 15 -3 9 7 -5 9 -4 11 3 6 7 -4 12 -10 12 -14z m1310 -76 c41 -61 38
-69 -5 -13 -19 25 -35 48 -35 51 0 14 11 3 40 -38z m-1400 16 c0 -4 -9 -13
-20 -20 -24 -15 -26 -9 -4 12 17 18 24 20 24 8z m-50 -42 c0 -5 -3 -10 -8 -10
-4 0 -25 -15 -47 -34 -22 -19 -42 -32 -45 -29 -3 3 1 8 8 10 6 3 10 9 6 14 -3
5 0 8 8 7 7 -2 12 3 11 10 -2 6 0 11 5 11 16 -3 32 1 31 9 -3 16 2 22 16 22 8
0 15 -4 15 -10z m-161 -137 c-30 -26 -109 -103 -177 -171 -68 -68 -125 -122
-128 -119 -3 3 22 31 55 63 33 31 58 61 55 66 -3 5 -1 7 5 6 11 -3 96 83 93
95 -1 4 1 6 6 5 10 -4 63 38 63 49 -1 4 3 8 8 8 6 0 19 10 31 23 11 12 26 22
31 22 6 0 -13 -21 -42 -47z m1717 -58 c1 -8 -4 -11 -12 -8 -15 6 -18 16 -7 26
8 9 16 1 19 -18z m154 -129 c0 -11 -19 -15 -25 -6 -3 5 1 10 9 10 9 0 16 -2
16 -4z m55 -17 c-8 -12 -35 -12 -35 0 0 11 22 20 33 14 4 -2 5 -9 2 -14z m79
-41 c4 4 6 0 4 -8 -1 -8 2 -14 7 -13 6 1 11 -7 11 -17 0 -14 -10 -9 -43 23
-50 49 -54 56 -14 28 15 -11 31 -17 35 -13z m-2336 -89 c-12 -16 -29 -29 -37
-28 -11 0 -12 2 -3 6 6 2 12 10 12 16 0 16 31 47 41 41 5 -3 -1 -18 -13 -35z
m2392 -5 c0 -8 -5 -14 -12 -14 -6 0 -8 3 -5 7 4 3 2 12 -5 20 -8 11 -7 12 6 7
9 -3 16 -12 16 -20z m15 -24 c-3 -5 -1 -10 6 -10 7 0 10 -3 6 -6 -9 -9 63 -95
74 -88 5 3 9 0 9 -6 0 -6 3 -9 8 -6 11 7 47 -23 37 -31 -4 -5 -10 -2 -12 5 -3
6 -9 10 -14 7 -16 -10 -48 15 -90 70 -34 46 -43 75 -23 75 3 0 2 -4 -1 -10z
m-2476 -48 c-34 -46 -70 -84 -77 -78 -9 9 13 42 26 39 6 -2 20 13 32 33 12 19
24 33 27 30 3 -3 -1 -13 -8 -24z m-92 -112 c-6 -11 -15 -20 -20 -20 -4 0 -5 6
0 13 4 6 8 15 9 20 1 4 2 10 3 13 0 3 5 2 11 -1 6 -4 5 -13 -3 -25z m2783 -5
c7 -8 15 -13 19 -11 3 2 17 -11 31 -28 l25 -31 -35 28 c-19 15 -39 31 -45 35
-5 5 -13 9 -18 9 -22 4 -29 12 -11 12 12 1 27 -6 34 -14z m-2826 -50 c-4 -8
-10 -15 -15 -15 -4 0 -6 7 -3 15 4 8 10 15 15 15 4 0 6 -7 3 -15z m-38 -51
c-9 -9 -20 -14 -23 -10 -4 3 2 13 13 20 25 18 31 12 10 -10z m2954 16 c0 -5
-4 -10 -10 -10 -5 0 -10 5 -10 10 0 6 5 10 10 10 6 0 10 -4 10 -10z m-2987
-61 c-17 -17 -37 -1 -22 17 8 10 15 12 23 4 7 -7 7 -13 -1 -21z m3017 -14 c0
-8 -2 -15 -4 -15 -2 0 -6 7 -10 15 -3 8 -1 15 4 15 6 0 10 -7 10 -15z m-3040
-15 c0 -5 -5 -10 -11 -10 -5 0 -7 5 -4 10 3 6 8 10 11 10 2 0 4 -4 4 -10z
m-20 -30 c0 -5 -5 -10 -11 -10 -5 0 -7 5 -4 10 3 6 8 10 11 10 2 0 4 -4 4 -10z
m3075 -20 c3 -5 1 -10 -4 -10 -6 0 -11 5 -11 10 0 6 2 10 4 10 3 0 8 -4 11
-10z m92 -47 c-4 -3 1 -12 11 -19 15 -12 15 -12 -5 -7 -13 3 -23 9 -23 12 0 9
11 21 18 21 3 0 2 -3 -1 -7z m57 -49 c3 -8 11 -12 17 -8 8 4 9 3 5 -4 -5 -9
-12 -8 -26 1 -21 12 -26 27 -11 27 5 0 12 -7 15 -16z m-3324 -33 c0 -3 -5 -13
-10 -21 -8 -13 -11 -13 -22 -1 -11 11 -11 13 1 6 10 -6 13 -4 9 7 -4 9 0 15 8
15 8 0 14 -3 14 -6z m3560 -21 c0 -5 -4 -10 -9 -10 -6 0 -13 5 -16 10 -3 6 1
10 9 10 9 0 16 -4 16 -10z m50 -31 c0 -5 -4 -9 -10 -9 -5 0 -10 7 -10 16 0 8
5 12 10 9 6 -3 10 -10 10 -16z m-3655 -19 c-3 -5 -12 -10 -18 -10 -7 0 -6 4 3
10 19 12 23 12 15 0z m3685 -10 c0 -5 -4 -10 -10 -10 -5 0 -10 5 -10 10 0 6 5
10 10 10 6 0 10 -4 10 -10z m-3710 -40 c0 -5 -5 -10 -11 -10 -5 0 -7 5 -4 10
3 6 8 10 11 10 2 0 4 -4 4 -10z m-20 -30 c0 -5 -4 -10 -10 -10 -5 0 -10 5 -10
10 0 6 5 10 10 10 6 0 10 -4 10 -10z m3760 -10 c0 -5 -2 -10 -4 -10 -3 0 -8 5
-11 10 -3 6 -1 10 4 10 6 0 11 -4 11 -10z m-3790 -50 c0 -5 -4 -10 -10 -10 -5
0 -10 5 -10 10 0 6 5 10 10 10 6 0 10 -4 10 -10z m-29 -43 c-10 -9 -11 -8 -5
6 3 10 9 15 12 12 3 -3 0 -11 -7 -18z m-11 -23 c0 -6 -40 -91 -49 -104 -9 -12
-10 -10 -9 12 1 15 6 24 10 22 7 -5 12 13 11 43 -1 7 4 10 10 6 6 -4 8 0 5 9
-4 9 0 15 8 15 8 0 14 -1 14 -3z m4044 -70 c3 -8 2 -12 -4 -9 -6 3 -10 10 -10
16 0 14 7 11 14 -7z m-4118 -82 c-18 -16 -18 -16 -6 6 6 13 14 21 18 18 3 -4
-2 -14 -12 -24z m4255 -8 l24 -27 -27 18 c-16 9 -28 21 -28 26 0 14 5 11 31
-17z m-4265 -41 c-10 -10 -19 5 -10 18 6 11 8 11 12 0 2 -7 1 -15 -2 -18z
m4324 -3 c11 -11 16 -20 12 -20 -5 0 -17 9 -27 20 -10 11 -15 20 -12 20 4 0
16 -9 27 -20z m-4330 -14 c0 -3 -4 -8 -10 -11 -5 -3 -10 -1 -10 4 0 6 5 11 10
11 6 0 10 -2 10 -4z m4357 -78 c-3 -7 -5 -2 -5 12 0 14 2 19 5 13 2 -7 2 -19
0 -25z m13 -28 c0 -5 -4 -10 -10 -10 -5 0 -10 5 -10 10 0 6 5 10 10 10 6 0 10
-4 10 -10z m-83 -16 c-3 -3 -2 -17 4 -31 6 -16 6 -22 -1 -18 -6 3 -10 13 -10
21 0 10 -5 12 -12 8 -9 -5 -9 -2 1 9 7 9 16 17 19 17 3 0 3 -3 -1 -6z m-4352
-56 c-7 -34 -16 -35 -13 -1 1 18 5 30 9 27 4 -2 6 -14 4 -26z m4448 21 c-6 -6
-9 -19 -6 -28 3 -11 1 -11 -7 3 -10 15 -9 20 1 27 19 12 25 11 12 -2z m-137
-21 c-9 -13 -30 -47 -47 -75 -34 -59 -49 -72 -23 -20 19 36 75 117 82 117 2 0
-3 -10 -12 -22z m51 -40 c-3 -7 -5 -2 -5 12 0 14 2 19 5 13 2 -7 2 -19 0 -25z
m95 -4 c-4 -23 -6 -24 -15 -9 -8 14 2 32 19 35 1 0 -1 -12 -4 -26z m-4468 -5
c-3 -5 -7 -19 -9 -30 -8 -38 -15 -33 -12 8 1 27 6 39 14 36 7 -3 10 -9 7 -14z
m4383 -51 c-3 -7 -5 -2 -5 12 0 14 2 19 5 13 2 -7 2 -19 0 -25z m-4397 -27 c0
-3 -4 -12 -9 -19 -6 -10 -10 -7 -13 11 -4 18 -1 24 9 20 7 -3 13 -8 13 -12z
m4493 -1 c-3 -12 -8 -19 -11 -16 -5 6 5 36 12 36 2 0 2 -9 -1 -20z m-104 -37
c-12 -21 -27 -42 -32 -48 -11 -11 9 29 31 63 24 37 25 25 1 -15z m-184 -51
c-25 -39 -50 -74 -55 -77 -5 -3 14 30 43 74 29 44 53 78 55 76 2 -1 -18 -35
-43 -73z m-4215 41 c0 -5 -5 -15 -10 -23 -8 -12 -10 -11 -10 8 0 12 5 22 10
22 6 0 10 -3 10 -7z m4520 -24 c0 -6 -4 -7 -10 -4 -5 3 -10 11 -10 16 0 6 5 7
10 4 6 -3 10 -11 10 -16z m-4537 -44 c-7 -21 -13 -19 -13 6 0 11 4 18 10 14 5
-3 7 -12 3 -20z m4361 -10 c-9 -14 -18 -25 -21 -25 -5 0 5 18 20 38 17 22 18
13 1 -13z m102 -43 c-3 -3 -6 2 -6 11 0 23 -17 21 -25 -2 -3 -11 -12 -24 -20
-31 -7 -6 -1 11 13 39 l27 50 8 -30 c5 -17 6 -34 3 -37z m-326 -61 c-5 -11
-15 -23 -21 -27 -6 -3 -3 5 6 20 20 30 30 35 15 7z m260 15 c0 -2 -8 -10 -17
-17 -16 -13 -17 -12 -4 4 13 16 21 21 21 13z m87 -28 c-3 -8 -6 -5 -6 6 -1 11
2 17 5 13 3 -3 4 -12 1 -19z m-213 -25 c-34 -46 -50 -64 -39 -43 13 24 55 80
61 80 3 0 -7 -17 -22 -37z m86 -2 c-5 -11 -15 -23 -21 -27 -6 -3 -3 5 6 20 20
30 30 35 15 7z m132 -33 c-6 -6 -7 0 -4 19 5 21 7 23 10 9 2 -10 0 -22 -6 -28z
m-382 29 c0 -2 -15 -16 -32 -33 l-33 -29 29 33 c28 30 36 37 36 29z m210 -57
c-6 -11 -13 -20 -16 -20 -2 0 0 9 6 20 6 11 13 20 16 20 2 0 0 -9 -6 -20z
m144 -15 c-9 -14 -18 -25 -21 -25 -5 0 5 18 20 38 17 22 18 13 1 -13z m-434
-25 c-11 -16 -26 -33 -33 -37 -12 -7 0 11 32 50 23 28 24 20 1 -13z m144 -40
c-20 -27 -38 -50 -41 -50 -5 0 31 55 55 83 29 33 22 17 -14 -33z m119 30 c-3
-12 -8 -19 -11 -16 -5 6 5 36 12 36 2 0 2 -9 -1 -20z m-4296 -22 c-3 -8 -6 -5
-6 6 -1 11 2 17 5 13 3 -3 4 -12 1 -19z m4427 -3 c-9 -14 -18 -25 -21 -25 -5
0 5 18 20 38 17 22 18 13 1 -13z m83 -20 c0 -8 -4 -12 -9 -9 -5 3 -6 10 -3 15
9 13 12 11 12 -6z m-534 -10 c-3 -9 -8 -14 -10 -11 -3 3 -2 9 2 15 9 16 15 13
8 -4z m314 -27 c-3 -7 -5 -2 -5 12 0 14 2 19 5 13 2 -7 2 -19 0 -25z m-354
-20 c-46 -52 -116 -121 -88 -88 46 54 99 110 104 110 2 0 -5 -10 -16 -22z
m263 -25 c-24 -44 -63 -89 -72 -80 -4 4 2 20 14 35 12 15 32 41 45 59 26 37
35 28 13 -14z m-115 -25 c-29 -35 -70 -86 -91 -115 -22 -29 -50 -58 -63 -64
-15 -9 -11 -1 13 23 55 55 113 129 113 144 0 7 4 11 8 9 4 -3 19 11 33 30 15
19 29 35 32 35 3 0 -17 -28 -45 -62z m379 38 c0 -2 -8 -10 -17 -17 -16 -13
-17 -12 -4 4 13 16 21 21 21 13z m-90 -10 c0 -2 -8 -10 -17 -17 -16 -13 -17
-12 -4 4 13 16 21 21 21 13z m-115 -35 c-8 -17 -19 -33 -25 -36 -5 -3 -1 10
11 29 25 43 36 48 14 7z m55 -51 c-6 -11 -13 -20 -16 -20 -2 0 0 9 6 20 6 11
13 20 16 20 2 0 0 -9 -6 -20z m95 0 c3 -5 -1 -10 -10 -10 -9 0 -13 5 -10 10 3
6 8 10 10 10 2 0 7 -4 10 -10z m-205 -25 c-13 -14 -27 -25 -32 -25 -9 0 42 49
51 50 3 0 -6 -11 -19 -25z m-520 -150 c-67 -74 -124 -135 -126 -135 -2 0 51
63 118 140 67 76 124 137 126 135 2 -2 -51 -65 -118 -140z m664 80 c-4 -8 -11
-15 -16 -15 -6 0 -5 6 2 15 7 8 14 15 16 15 2 0 1 -7 -2 -15z m-122 -40 c-15
-25 -30 -45 -34 -45 -4 0 6 20 23 45 17 25 32 45 34 45 3 0 -8 -20 -23 -45z
m-102 -55 l-11 -25 6 25 c2 14 5 34 6 45 2 19 2 19 6 0 2 -12 -1 -32 -7 -45z
m-275 -22 c-94 -99 -128 -133 -90 -88 40 47 148 160 154 160 2 0 -27 -33 -64
-72z m-3775 38 c0 -2 -9 -2 -20 1 -11 3 -20 9 -20 15 0 5 9 4 20 -2 11 -6 20
-12 20 -14z m45 -34 c-3 -3 -11 0 -18 7 -9 10 -8 11 6 5 10 -3 15 -9 12 -12z
m4056 0 c-5 -10 -18 -25 -27 -33 -11 -9 -9 -2 6 19 26 35 36 42 21 14z m-3856
-42 c2 -27 0 -26 -24 16 l-21 35 22 -15 c12 -9 22 -25 23 -36z m-135 10 c0 -5
-6 -12 -12 -16 -7 -4 -10 -4 -6 1 4 4 3 14 -4 22 -8 11 -7 12 6 7 9 -3 16 -10
16 -14z m3915 -19 c-21 -43 -29 -39 -8 4 9 19 18 33 21 31 2 -2 -4 -18 -13
-35z m-3871 3 c4 -9 4 -19 1 -22 -3 -3 -5 0 -5 6 0 7 -3 11 -7 11 -17 -3 -24
2 -18 11 9 15 22 12 29 -6z m3906 -8 c0 -2 -8 -10 -17 -17 -16 -13 -17 -12 -4
4 13 16 21 21 21 13z m-3725 -24 c-3 -3 -11 0 -18 7 -9 10 -8 11 6 5 10 -3 15
-9 12 -12z m6 -113 c18 -12 57 -33 88 -45 31 -13 49 -24 41 -24 -25 0 -134 56
-156 81 -27 29 -64 90 -64 104 0 6 14 -13 30 -42 16 -28 44 -61 61 -74z m3787
97 c-6 -14 -17 -27 -25 -30 -15 -6 -10 5 16 36 21 24 23 23 9 -6z m-128 1 c0
-2 -12 -14 -27 -28 l-28 -24 24 28 c23 25 31 32 31 24z m24 -12 c-4 -8 -11
-15 -16 -15 -6 0 -5 6 2 15 7 8 14 15 16 15 2 0 1 -7 -2 -15z m-558 -33 c-17
-16 -18 -16 -5 5 7 12 15 20 18 17 3 -2 -3 -12 -13 -22z m-3255 -14 c11 -13
24 -31 30 -41 9 -16 8 -17 -10 -5 -11 7 -18 14 -15 17 2 2 -6 15 -18 28 -12
13 -18 23 -14 23 4 0 16 -10 27 -22z m543 14 c3 -5 -1 -9 -9 -9 -8 0 -12 4 -9
9 3 4 7 8 9 8 2 0 6 -4 9 -8z m2906 5 c0 -2 -12 -14 -27 -28 l-28 -24 24 28
c23 25 31 32 31 24z m333 -10 c-16 -26 -157 -206 -160 -203 -1 1 2 19 8 41 6
21 9 57 7 81 -2 35 0 44 15 48 13 3 15 1 9 -7 -5 -7 -12 -39 -14 -71 -4 -44
-2 -55 6 -45 6 8 37 49 70 92 52 69 81 100 59 64z m-2888 -100 c6 -6 -14 7
-43 27 l-53 38 6 -28 c5 -29 4 -26 -21 33 l-13 32 57 -46 c31 -25 62 -50 67
-56z m2974 74 c-7 -10 -21 -24 -32 -30 -21 -14 -17 -3 12 31 20 24 34 23 20
-1z m-3140 -41 c0 -10 -3 -8 -9 5 -12 27 -12 43 0 25 5 -8 9 -22 9 -30z m2602
-67 c-71 -90 -121 -147 -110 -128 10 18 170 215 175 215 2 0 -27 -39 -65 -87z
m244 57 c16 -72 -39 -183 -136 -274 -63 -60 -309 -233 -309 -217 0 15 99 101
174 151 142 94 200 174 226 308 14 67 34 82 45 32z m-401 -32 c-41 -58 -62
-83 -49 -58 14 26 76 110 82 110 2 0 -12 -24 -33 -52z m291 -47 c-35 -105 -88
-163 -237 -260 l-77 -50 57 78 c31 42 93 123 137 178 117 147 157 165 120 54z
m355 75 c0 -2 -8 -10 -17 -17 -16 -13 -17 -12 -4 4 13 16 21 21 21 13z m-2790
-188 c102 -79 209 -160 238 -181 56 -42 73 -63 20 -26 -18 13 -121 91 -228
174 -107 84 -207 160 -222 170 -16 9 -28 21 -28 26 0 5 8 2 18 -5 9 -8 100
-79 202 -158z m-99 145 c13 -16 12 -17 -3 -4 -10 7 -18 15 -18 17 0 8 8 3 21
-13z m-601 -3 c68 -18 96 -22 195 -25 91 -3 129 2 210 29 11 3 0 -3 -24 -15
-80 -38 -287 -35 -399 6 -43 16 -33 19 18 5z m-200 -10 c0 -5 -2 -10 -4 -10
-3 0 -8 5 -11 10 -3 6 -1 10 4 10 6 0 11 -4 11 -10z m14 -36 c3 -8 2 -12 -4
-9 -6 3 -10 10 -10 16 0 14 7 11 14 -7z m154 -86 c33 -37 96 -72 183 -102 56
-20 60 -20 53 2 -5 14 -4 15 5 2 28 -39 4 -39 -99 1 -87 33 -164 94 -199 157
l-21 37 23 -29 c12 -16 37 -47 55 -68z m-7 64 c-7 -2 -18 1 -23 6 -8 8 -4 9
13 5 13 -4 18 -8 10 -11z m765 -12 c44 -31 60 -50 27 -31 -29 16 -88 61 -79
61 4 0 27 -14 52 -30z m2064 16 c0 -2 -8 -10 -17 -17 -16 -13 -17 -12 -4 4 13
16 21 21 21 13z m-2773 -12 c-3 -3 -12 -4 -19 -1 -8 3 -5 6 6 6 11 1 17 -2 13
-5z m131 -16 c7 -7 12 -16 12 -22 0 -5 -6 -2 -12 7 -9 11 -32 17 -68 20 l-55
3 56 2 c32 1 60 -3 67 -10z m-203 -126 c-6 -7 -35 12 -35 23 0 7 -9 15 -21 18
-12 3 -18 10 -15 15 3 5 -1 15 -10 23 -8 7 -20 22 -26 33 -6 12 16 -8 50 -44
33 -36 59 -66 57 -68z m2798 87 c-10 -17 -27 -38 -37 -47 -11 -9 -5 4 14 31
38 53 50 62 23 16z m637 27 c0 -2 -7 -7 -16 -10 -8 -3 -12 -2 -9 4 6 10 25 14
25 6z m-2579 -33 c13 -16 12 -17 -3 -4 -10 7 -18 15 -18 17 0 8 8 3 21 -13z
m2544 -13 c-3 -5 -12 -10 -18 -10 -7 0 -6 4 3 10 19 12 23 12 15 0z m-3146
-55 c0 -5 -6 1 -14 15 -8 14 -14 30 -14 35 0 6 6 -1 14 -15 8 -14 14 -29 14
-35z m2654 5 c-15 -22 -32 -40 -36 -40 -4 0 7 18 24 40 42 51 48 52 12 0z
m-1988 20 c3 -6 -1 -7 -9 -4 -18 7 -21 14 -7 14 6 0 13 -4 16 -10z m59 -49
c-3 -3 -15 6 -27 18 l-22 24 27 -19 c14 -10 24 -21 22 -23z m1701 -56 c-31
-41 -62 -78 -67 -81 -5 -4 19 32 54 78 34 47 65 83 67 81 2 -1 -22 -37 -54
-78z m659 69 c3 -8 2 -12 -4 -9 -6 3 -10 10 -10 16 0 14 7 11 14 -7z m-3309
-13 c3 -5 1 -12 -5 -16 -5 -3 -10 1 -10 9 0 18 6 21 15 7z m2821 -43 c-9 -13
-27 -39 -41 -60 -13 -20 -30 -40 -37 -44 -12 -7 10 26 60 94 13 17 27 32 29
32 3 0 -2 -10 -11 -22z m-2701 -26 c-3 -3 -11 0 -18 7 -9 10 -8 11 6 5 10 -3
15 -9 12 -12z m3018 -4 c-134 -173 -273 -327 -273 -303 0 5 30 38 68 74 79 77
154 170 146 182 -3 5 0 9 6 9 7 0 21 11 32 25 11 14 22 25 25 25 3 0 1 -6 -4
-12z m-2778 -86 c-1 -1 -15 4 -31 13 -16 8 -25 15 -20 15 5 0 -1 12 -15 27
-13 15 -3 10 22 -12 25 -22 45 -41 44 -43z m2875 64 c0 -2 -7 -7 -16 -10 -8
-3 -12 -2 -9 4 6 10 25 14 25 6z m-2079 -53 c10 -12 5 -11 -18 6 -18 12 -33
24 -33 27 0 9 37 -15 51 -33z m-448 -42 c25 -43 15 -39 -24 10 -23 29 -27 39
-13 31 10 -6 27 -24 37 -41z m630 -185 c98 -77 204 -159 236 -181 106 -73 195
-139 300 -220 57 -44 107 -79 112 -78 5 2 9 -2 9 -7 0 -18 -11 -11 -99 58 -47
37 -163 123 -257 190 -94 68 -236 175 -315 239 -79 63 -179 140 -221 170 -43
30 -78 57 -78 60 0 9 138 -92 313 -231z m1207 184 c-17 -22 -34 -40 -37 -40
-2 0 10 18 27 40 17 22 34 40 37 40 2 0 -10 -18 -27 -40z m-2015 21 c3 -5 2
-12 -3 -15 -5 -3 -9 1 -9 9 0 17 3 19 12 6z m710 -45 c6 -4 1 -4 -10 2 -11 6
-29 21 -40 34 -19 22 -19 22 10 -2 17 -14 35 -29 40 -34z m1465 10 c-16 -25
-35 -48 -41 -52 -6 -3 6 17 26 45 45 63 58 68 15 7z m464 23 c-3 -5 -10 -7
-15 -3 -5 3 -7 10 -3 15 3 5 10 7 15 3 5 -3 7 -10 3 -15z m-2664 7 c0 -2 -7
-7 -16 -10 -8 -3 -12 -2 -9 4 6 10 25 14 25 6z m51 -33 c13 -16 12 -17 -3 -4
-10 7 -18 15 -18 17 0 8 8 3 21 -13z m2389 -7 c0 -2 -8 -10 -17 -17 -16 -13
-17 -12 -4 4 13 16 21 21 21 13z m-1659 -33 c13 -17 13 -17 -6 -3 -11 8 -22
16 -24 17 -2 2 0 3 6 3 6 0 17 -8 24 -17z m-436 -113 c44 -22 105 -45 135 -53
29 -8 56 -19 58 -26 16 -48 -237 70 -320 150 l-53 51 50 -42 c27 -23 86 -59
130 -80z m1596 47 c-33 -40 -72 -84 -87 -97 -15 -14 10 19 56 73 46 53 85 97
87 97 3 0 -23 -33 -56 -73z m-1813 21 c17 -19 19 -25 7 -25 -8 0 -15 7 -15 14
0 8 -5 11 -10 8 -6 -4 -9 -2 -8 4 2 5 -6 17 -17 26 l-20 16 20 -10 c11 -5 30
-20 43 -33z m2252 29 c0 -2 -10 -12 -22 -23 l-23 -19 19 23 c18 21 26 27 26
19z m-247 -37 c-9 -16 -21 -30 -25 -30 -5 0 1 14 14 30 12 17 23 30 25 30 2 0
-4 -13 -14 -30z m-1273 -6 c0 -2 -9 0 -20 6 -11 6 -20 13 -20 16 0 2 9 0 20
-6 11 -6 20 -13 20 -16z m-414 1 c12 -3 31 -21 43 -41 l21 -35 -21 6 c-26 9
-169 74 -169 77 0 4 101 -2 126 -7z m2104 11 c0 -2 -8 -10 -17 -17 -16 -13
-17 -12 -4 4 13 16 21 21 21 13z m-1620 -62 c0 -3 -13 4 -30 16 -16 12 -30 24
-30 26 0 3 14 -4 30 -16 17 -12 30 -24 30 -26z m1427 14 c-3 -7 -5 -2 -5 12 0
14 2 19 5 13 2 -7 2 -19 0 -25z m-2157 -12 c0 -10 -30 0 -34 11 -4 11 -1 11
14 3 11 -6 20 -12 20 -14z m1883 -17 c-55 -93 -404 -463 -491 -521 l-26 -17
-22 87 c-12 48 -18 91 -14 96 5 4 7 2 7 -5 -3 -21 34 -159 42 -159 19 0 192
166 291 281 30 35 78 88 105 119 28 30 66 76 84 103 39 53 51 62 24 16z m397
-12 c0 -2 -10 -12 -22 -23 l-23 -19 19 23 c18 21 26 27 26 19z m-2216 -15 c3
-5 -1 -9 -9 -9 -8 0 -12 4 -9 9 3 4 7 8 9 8 2 0 6 -4 9 -8z m17 -35 c-10 -9
-11 -8 -5 6 3 10 9 15 12 12 3 -3 0 -11 -7 -18z m49 -1 c0 -2 -7 -7 -16 -10
-8 -3 -12 -2 -9 4 6 10 25 14 25 6z m751 -23 c13 -16 12 -17 -3 -4 -17 13 -22
21 -14 21 2 0 10 -8 17 -17z m749 14 c0 -1 -26 -27 -57 -57 l-58 -55 55 58
c50 53 60 62 60 54z m547 -59 c-3 -7 -5 -2 -5 12 0 14 2 19 5 13 2 -7 2 -19 0
-25z m-1246 5 c13 -16 12 -17 -3 -4 -17 13 -22 21 -14 21 2 0 10 -8 17 -17z
m44 -33 c10 -11 16 -20 13 -20 -3 0 -13 9 -23 20 -10 11 -16 20 -13 20 3 0 13
-9 23 -20z m-584 -27 c13 -16 12 -17 -3 -4 -17 13 -22 21 -14 21 2 0 10 -8 17
-17z m629 -8 c11 -13 10 -14 -4 -9 -9 3 -16 10 -16 15 0 13 6 11 20 -6z m490
2 c0 -1 -26 -27 -57 -57 l-58 -55 55 58 c50 53 60 62 60 54z m-400 -73 c0 -2
-16 6 -35 18 -19 13 -35 27 -35 31 0 4 16 -4 35 -19 19 -14 35 -28 35 -30z
m-210 -24 c0 -5 -7 -7 -15 -4 -8 4 -15 8 -15 10 0 2 7 4 15 4 8 0 15 -4 15
-10z m251 -7 c13 -16 12 -17 -3 -4 -17 13 -22 21 -14 21 2 0 10 -8 17 -17z
m-324 0 l-28 -4 43 -41 c40 -38 27 -34 -17 4 -11 10 -28 24 -38 31 -15 10 -12
12 25 13 24 1 31 -1 15 -3z m-169 -10 c-10 -2 -26 -2 -35 0 -10 3 -2 5 17 5
19 0 27 -2 18 -5z m732 4 c0 -2 -10 -12 -22 -23 l-23 -19 19 23 c18 21 26 27
26 19z m-689 -24 c13 -16 12 -17 -3 -4 -17 13 -22 21 -14 21 2 0 10 -8 17 -17z
m273 -22 c-3 -3 -15 6 -27 18 l-22 24 27 -19 c14 -10 24 -21 22 -23z m279 -31
c3 -8 8 -24 12 -35 3 -11 -1 -6 -11 10 -9 17 -24 39 -33 49 -15 18 -15 18 6 5
12 -7 24 -20 26 -29z m-509 22 c3 -5 -1 -9 -9 -9 -8 0 -12 4 -9 9 3 4 7 8 9 8
2 0 6 -4 9 -8z m344 -76 c3 -5 -16 6 -42 24 -26 19 -50 39 -54 44 -3 5 16 -6
42 -24 26 -19 50 -39 54 -44z m45 -148 c48 -38 87 -72 87 -74 0 -9 -208 156
-269 214 -8 7 -24 20 -37 29 -13 8 -24 20 -24 25 0 5 35 -21 78 -57 42 -37
116 -99 165 -137z m-288 142 c3 -5 1 -10 -4 -10 -6 0 -11 5 -11 10 0 6 2 10 4
10 3 0 8 -4 11 -10z m432 -22 c-3 -8 -6 -5 -6 6 -1 11 2 17 5 13 3 -3 4 -12 1
-19z m613 8 c0 -2 -8 -10 -17 -17 -16 -13 -17 -12 -4 4 13 16 21 21 21 13z
m-719 -43 c13 -16 12 -17 -3 -4 -10 7 -18 15 -18 17 0 8 8 3 21 -13z m344 -13
c-3 -5 -12 -10 -18 -10 -7 0 -6 4 3 10 19 12 23 12 15 0z m-304 -17 c13 -16
12 -17 -3 -4 -17 13 -22 21 -14 21 2 0 10 -8 17 -17z m380 -1 c-13 -2 -27 0
-32 5 -6 6 3 7 23 4 28 -4 29 -6 9 -9z m49 1 c0 -13 -223 -232 -232 -227 -4 3
-8 11 -8 17 0 9 2 9 8 0 5 -9 43 24 117 102 115 119 115 119 115 108z m-189
-33 c-18 -17 -36 -30 -40 -30 -7 1 61 60 69 60 3 0 -10 -14 -29 -30z m-153
-41 c3 -8 -3 -5 -14 6 -10 11 -28 29 -39 40 -11 10 -4 8 14 -6 19 -14 37 -32
39 -40z m432 58 c0 -1 -30 -32 -67 -67 l-68 -65 65 68 c60 62 70 72 70 64z
m-710 -42 c11 -13 10 -14 -4 -9 -9 3 -16 10 -16 15 0 13 6 11 20 -6z m357 -37
c-3 -8 -6 -5 -6 6 -1 11 2 17 5 13 3 -3 4 -12 1 -19z m-70 -30 c-3 -7 -5 -2
-5 12 0 14 2 19 5 13 2 -7 2 -19 0 -25z m92 -47 c1 -35 -5 -22 -12 24 -5 28
-4 34 3 20 5 -11 9 -31 9 -44z m-113 2 c17 -12 34 -20 37 -16 4 3 7 -1 7 -10
0 -13 -11 -9 -50 19 -27 20 -50 38 -50 41 0 6 17 -5 56 -34z m31 5 c-3 -8 -6
-5 -6 6 -1 11 2 17 5 13 3 -3 4 -12 1 -19z m272 -14 c-6 -7 -15 -12 -19 -9 -5
3 -17 -5 -27 -17 -10 -13 -30 -32 -43 -43 -14 -10 -1 6 29 37 30 32 58 55 63
52 5 -3 4 -12 -3 -20z m-423 4 c3 -4 -1 -5 -10 -4 -8 1 -18 5 -22 8 -3 4 1 5
10 4 8 -1 18 -5 22 -8z"/>
<path d="M1952 3808 c-31 -31 4 -94 69 -126 49 -24 79 -16 79 23 0 31 -45 84
-87 101 -40 17 -46 17 -61 2z"/>
<path d="M1895 3367 c-56 -18 -97 -75 -125 -178 -12 -46 -28 -96 -36 -111 -8
-15 -62 -58 -127 -101 -63 -41 -123 -87 -135 -102 -75 -95 -42 -237 68 -293
38 -20 56 -23 120 -19 92 4 165 32 245 92 158 119 255 309 255 498 0 76 -23
130 -73 174 -57 50 -117 62 -192 40z"/>
<path d="M1008 2649 c-29 -16 -22 -61 15 -96 39 -38 68 -53 99 -53 52 0 62 42
22 90 -41 48 -106 77 -136 59z"/>
<path d="M799 3873 c-13 -16 -12 -17 4 -4 9 7 17 15 17 17 0 8 -8 3 -21 -13z"/>
</g>
</svg>
